<mxfile host="app.diagrams.net" modified="2021-10-12T12:13:31.430Z" agent="5.0 (Windows NT 10.0; Win64; x64) AppleWebKit/537.36 (KHTML, like Gecko) Chrome/94.0.4606.81 Safari/537.36" etag="ZbFQbT17-1MF7wKPS3rn" version="15.5.1" type="github">
  <diagram id="C5RBs43oDa-KdzZeNtuy" name="Page-1">
    <mxGraphModel dx="3555" dy="3154" grid="1" gridSize="10" guides="1" tooltips="1" connect="1" arrows="1" fold="1" page="1" pageScale="1" pageWidth="827" pageHeight="1169" math="0" shadow="0">
      <root>
        <mxCell id="WIyWlLk6GJQsqaUBKTNV-0" />
        <mxCell id="WIyWlLk6GJQsqaUBKTNV-1" parent="WIyWlLk6GJQsqaUBKTNV-0" />
        <mxCell id="fCl1h1IX-KnyHzvw6Qa8-23" style="edgeStyle=orthogonalEdgeStyle;rounded=0;orthogonalLoop=1;jettySize=auto;html=1;exitX=0.75;exitY=1;exitDx=0;exitDy=0;fontSize=24;" edge="1" parent="WIyWlLk6GJQsqaUBKTNV-1" source="fCl1h1IX-KnyHzvw6Qa8-0" target="fCl1h1IX-KnyHzvw6Qa8-13">
          <mxGeometry relative="1" as="geometry" />
        </mxCell>
        <mxCell id="fCl1h1IX-KnyHzvw6Qa8-28" style="edgeStyle=orthogonalEdgeStyle;rounded=0;orthogonalLoop=1;jettySize=auto;html=1;exitX=1;exitY=0.5;exitDx=0;exitDy=0;fontSize=18;" edge="1" parent="WIyWlLk6GJQsqaUBKTNV-1" source="fCl1h1IX-KnyHzvw6Qa8-0">
          <mxGeometry relative="1" as="geometry">
            <mxPoint x="980" y="-920" as="targetPoint" />
          </mxGeometry>
        </mxCell>
        <mxCell id="fCl1h1IX-KnyHzvw6Qa8-30" style="edgeStyle=orthogonalEdgeStyle;rounded=0;orthogonalLoop=1;jettySize=auto;html=1;exitX=1;exitY=0.5;exitDx=0;exitDy=0;entryX=0.5;entryY=0;entryDx=0;entryDy=0;fontSize=18;" edge="1" parent="WIyWlLk6GJQsqaUBKTNV-1" source="fCl1h1IX-KnyHzvw6Qa8-0" target="fCl1h1IX-KnyHzvw6Qa8-29">
          <mxGeometry relative="1" as="geometry" />
        </mxCell>
        <UserObject label="products" lucidchartObjectId="d0ThvlTQT.xf" id="fCl1h1IX-KnyHzvw6Qa8-0">
          <mxCell style="html=1;overflow=block;blockSpacing=1;whiteSpace=wrap;;whiteSpace=wrap;fontSize=17;fontFamily=Liberation Mono;fontColor=#333333;fontStyle=1;spacing=9;strokeColor=#5e5e5e;strokeOpacity=100;rounded=1;absoluteArcSize=1;arcSize=9;strokeWidth=2.3;" vertex="1" parent="WIyWlLk6GJQsqaUBKTNV-1">
            <mxGeometry x="320" y="-1050" width="120" height="90" as="geometry" />
          </mxCell>
        </UserObject>
        <mxCell id="fCl1h1IX-KnyHzvw6Qa8-26" style="edgeStyle=orthogonalEdgeStyle;rounded=0;orthogonalLoop=1;jettySize=auto;html=1;exitX=0.5;exitY=1;exitDx=0;exitDy=0;fontSize=24;" edge="1" parent="WIyWlLk6GJQsqaUBKTNV-1" source="fCl1h1IX-KnyHzvw6Qa8-1" target="fCl1h1IX-KnyHzvw6Qa8-20">
          <mxGeometry relative="1" as="geometry" />
        </mxCell>
        <UserObject label="/api/app/delete_prod_from_group/" lucidchartObjectId="k1ThpZDKHD~1" id="fCl1h1IX-KnyHzvw6Qa8-1">
          <mxCell style="html=1;overflow=block;blockSpacing=1;whiteSpace=wrap;rounded=1;arcSize=50;whiteSpace=wrap;fontSize=16.7;fontColor=#333333;spacing=3.8;strokeColor=#5e5e5e;strokeOpacity=100;strokeWidth=2.3;" vertex="1" parent="WIyWlLk6GJQsqaUBKTNV-1">
            <mxGeometry x="22" y="-705" width="325" height="60" as="geometry" />
          </mxCell>
        </UserObject>
        <UserObject label="" lucidchartObjectId="K1ThdN~bNKdz" id="fCl1h1IX-KnyHzvw6Qa8-3">
          <mxCell style="html=1;jettySize=18;whiteSpace=wrap;fontSize=13;strokeColor=#5E5E5E;strokeWidth=1.5;rounded=1;arcSize=12;edgeStyle=orthogonalEdgeStyle;startArrow=none;;endArrow=block;endFill=1;;exitX=0.5;exitY=1.013;exitPerimeter=0;entryX=0.5;entryY=-0.019;entryPerimeter=0;" edge="1" parent="WIyWlLk6GJQsqaUBKTNV-1" source="fCl1h1IX-KnyHzvw6Qa8-0" target="fCl1h1IX-KnyHzvw6Qa8-1">
            <mxGeometry width="100" height="100" relative="1" as="geometry">
              <Array as="points" />
            </mxGeometry>
          </mxCell>
        </UserObject>
        <UserObject label="{&#39;Status&#39;: &#39;OK&#39;, &#39;Message&#39;: &#39;Product successfully has been deleted from group&#39;}" lucidchartObjectId="52ThJg98ZM.b" id="fCl1h1IX-KnyHzvw6Qa8-8">
          <mxCell style="html=1;overflow=block;blockSpacing=1;whiteSpace=wrap;shadow=1;whiteSpace=wrap;fontSize=13;fontColor=#333333;spacing=3.8;strokeColor=none;fillColor=#FFECA9;strokeWidth=0;" vertex="1" parent="WIyWlLk6GJQsqaUBKTNV-1">
            <mxGeometry x="22" y="-450" width="328" height="120" as="geometry" />
          </mxCell>
        </UserObject>
        <UserObject label="{&#39;Status&#39;: &#39;Error&#39;, &#39;Message&#39;: &#39;Not logged in&#39;}" lucidchartObjectId="22ThiJKDrjVu" id="fCl1h1IX-KnyHzvw6Qa8-9">
          <mxCell style="html=1;overflow=block;blockSpacing=1;whiteSpace=wrap;shadow=1;whiteSpace=wrap;fontSize=13;fontColor=#333333;spacing=3.8;strokeColor=none;fillColor=#FFECA9;strokeWidth=0;" vertex="1" parent="WIyWlLk6GJQsqaUBKTNV-1">
            <mxGeometry x="30" y="-310" width="320" height="120" as="geometry" />
          </mxCell>
        </UserObject>
        <UserObject label="" lucidchartObjectId="u5ThopFs4aIM" id="fCl1h1IX-KnyHzvw6Qa8-12">
          <mxCell style="html=1;overflow=block;blockSpacing=1;whiteSpace=wrap;;whiteSpace=wrap;fontSize=13;spacing=3.8;strokeColor=none;fillOpacity=0;fillColor=#ffffff;strokeWidth=0;" vertex="1" parent="WIyWlLk6GJQsqaUBKTNV-1">
            <mxGeometry x="618" y="-508" width="247" height="28" as="geometry" />
          </mxCell>
        </UserObject>
        <mxCell id="fCl1h1IX-KnyHzvw6Qa8-24" style="edgeStyle=orthogonalEdgeStyle;rounded=0;orthogonalLoop=1;jettySize=auto;html=1;exitX=0.5;exitY=1;exitDx=0;exitDy=0;fontSize=24;" edge="1" parent="WIyWlLk6GJQsqaUBKTNV-1" source="fCl1h1IX-KnyHzvw6Qa8-13" target="fCl1h1IX-KnyHzvw6Qa8-21">
          <mxGeometry relative="1" as="geometry" />
        </mxCell>
        <UserObject label="/api/app/create_category_group/ " lucidchartObjectId="S5Thh1K2M_9C" id="fCl1h1IX-KnyHzvw6Qa8-13">
          <mxCell style="html=1;overflow=block;blockSpacing=1;whiteSpace=wrap;rounded=1;arcSize=50;whiteSpace=wrap;fontSize=16.7;fontColor=#333333;spacing=3.8;strokeColor=#5e5e5e;strokeOpacity=100;strokeWidth=2.3;" vertex="1" parent="WIyWlLk6GJQsqaUBKTNV-1">
            <mxGeometry x="480" y="-710" width="325" height="60" as="geometry" />
          </mxCell>
        </UserObject>
        <UserObject label="{&lt;br&gt;&#39;Status&#39;: &#39;OK&#39;,&lt;br&gt;&amp;nbsp;&#39;Message&#39;: &#39;Category Group successfully has been created&#39;&lt;br&gt;}" lucidchartObjectId="S5ThOBOQB7-y" id="fCl1h1IX-KnyHzvw6Qa8-18">
          <mxCell style="html=1;overflow=block;blockSpacing=1;whiteSpace=wrap;shadow=1;whiteSpace=wrap;fontSize=13;fontColor=#333333;spacing=3.8;strokeColor=none;fillColor=#FFECA9;strokeWidth=0;align=left;" vertex="1" parent="WIyWlLk6GJQsqaUBKTNV-1">
            <mxGeometry x="480" y="-410" width="375" height="120" as="geometry" />
          </mxCell>
        </UserObject>
        <UserObject label="{&lt;br&gt;&#39;Status&#39;: &#39;Error&#39;, &#39;Message&#39;: &#39;Not logged in&#39;&lt;br&gt;}" lucidchartObjectId="S5ThA1d1zOJF" id="fCl1h1IX-KnyHzvw6Qa8-19">
          <mxCell style="html=1;overflow=block;blockSpacing=1;whiteSpace=wrap;shadow=1;whiteSpace=wrap;fontSize=13;fontColor=#333333;spacing=3.8;strokeColor=none;fillColor=#FFECA9;strokeWidth=0;align=left;" vertex="1" parent="WIyWlLk6GJQsqaUBKTNV-1">
            <mxGeometry x="477.5" y="-270" width="380" height="70" as="geometry" />
          </mxCell>
        </UserObject>
        <mxCell id="fCl1h1IX-KnyHzvw6Qa8-20" value="&lt;h1&gt;&lt;font style=&quot;font-size: 24px&quot;&gt;&lt;span style=&quot;color: rgb(51 , 51 , 51) ; text-align: center&quot;&gt;удаление товара из группы&lt;/span&gt;&lt;br&gt;&lt;/font&gt;&lt;/h1&gt;&lt;p&gt;&lt;span style=&quot;color: rgb(51 , 51 , 51) ; font-size: 17px ; text-align: center&quot;&gt;POST запрос,&lt;/span&gt;&lt;br style=&quot;color: rgb(51 , 51 , 51) ; font-size: 17px ; text-align: center&quot;&gt;&lt;span style=&quot;color: rgb(51 , 51 , 51) ; font-size: 17px ; text-align: center&quot;&gt;ожидает &#39;product_id&#39; - айди продукта&lt;/span&gt;&lt;br&gt;&lt;/p&gt;" style="text;html=1;strokeColor=none;fillColor=none;spacing=5;spacingTop=-20;whiteSpace=wrap;overflow=hidden;rounded=0;" vertex="1" parent="WIyWlLk6GJQsqaUBKTNV-1">
          <mxGeometry x="20" y="-580" width="356" height="120" as="geometry" />
        </mxCell>
        <mxCell id="fCl1h1IX-KnyHzvw6Qa8-21" value="&lt;h1&gt;&lt;font style=&quot;font-size: 24px&quot;&gt;Создание группы категорий (или просто группы)&lt;br&gt;&lt;/font&gt;&lt;/h1&gt;&lt;p&gt;&lt;span style=&quot;color: rgb(51 , 51 , 51) ; font-size: 17px ; text-align: center&quot;&gt;POST запрос,&lt;/span&gt;&lt;br style=&quot;color: rgb(51 , 51 , 51) ; font-size: 17px ; text-align: center&quot;&gt;&lt;span style=&quot;color: rgb(51 , 51 , 51) ; font-size: 17px ; text-align: center&quot;&gt;ожидает &#39;name&#39; - название группы&lt;/span&gt;&lt;br&gt;&lt;/p&gt;" style="text;html=1;strokeColor=none;fillColor=none;spacing=5;spacingTop=-20;whiteSpace=wrap;overflow=hidden;rounded=0;" vertex="1" parent="WIyWlLk6GJQsqaUBKTNV-1">
          <mxGeometry x="464.5" y="-585" width="356" height="120" as="geometry" />
        </mxCell>
        <mxCell id="fCl1h1IX-KnyHzvw6Qa8-27" value="https://92.63.192.215/api/app/delete_category_group/ - endpoint для удаления группы категорий (или просто группы), POST запрос, ожидает &#39;group_id&#39; - айди группы&#xa;Возможные ответы:&#xa;{&#39;Status&#39;: &#39;OK&#39;, &#39;Message&#39;: &#39;Category group has been deleted successfully&#39;}&#xa;{&#39;Status&#39;: &#39;Error&#39;, &#39;Message&#39;: &#39;Not logged in&#39;}&#xa;&#xa;&#xa;&#xa;&#xa;&#xa;&#xa;&#xa;&#xa;&#xa;&#xa;https://92.63.192.215/api/app/add_prod_to_group/ - endpoint для добавления товара в группу, POST запрос, ожидает &#39;group_id&#39; - айди группы, &#39;product_id&#39; - айди продукта&#xa;Возможные ответы:&#xa;{&#39;Status&#39;: &#39;OK&#39;, &#39;Message&#39;: &#39;Product successfully has been added to group&#39;}&#xa;{&#39;Status&#39;: &#39;Error&#39;, &#39;Message&#39;: &#39;Not logged in&#39;}&#xa;&#xa;&#xa;&#xa;&#xa;&#xa;&#xa;&#xa;&#xa;https://92.63.192.215/api/app/products/ - endpoint для страницы товаров, POST запрос, ожидает {&#39;mp_id&#39;: marketplace_id(int), &quot;type&quot;: &quot;WB/Ozon&quot;, &quot;products_from&quot;: int, &quot;products_to&quot;: int}&#xa;если отправить &#39;mp_id&#39;: -1, то первый попавшийся маркетплейс выдаст&#xa;если указать &#39;products_to&#39;: 0, то выдаст до последнего продукта" style="text;whiteSpace=wrap;html=1;fontSize=18;" vertex="1" parent="WIyWlLk6GJQsqaUBKTNV-1">
          <mxGeometry x="910" y="-920" width="550" height="870" as="geometry" />
        </mxCell>
        <mxCell id="fCl1h1IX-KnyHzvw6Qa8-29" value="https://92.63.192.215/api/app/set_buy_cost/ - endpoint для установки закупочной цены, POST запрос, ожидает &#39;mp_id&#39; - id маркетплейса (int), &#39;mp_type&#39;: &#39;WB/Ozon&#39;, &#39;prod_id&#39; - id продукта (int), buy_cost - закупочная цена (int)&#xa;Возможные ответы:&#xa;{&#39;Status&#39;: &#39;Error&#39;, &#39;Message&#39;: &quot;You can&#39;t set buy_cost less than 0&quot;}&#xa;{&quot;Status&quot;: &quot;OK&quot;, &quot;Message&quot;: &quot;Successfully set buy_cost to product&quot;}&#xa;{&quot;Status&quot;: &quot;Error&quot;, &quot;Message&quot;: &quot;Not logged in&quot;}" style="text;whiteSpace=wrap;html=1;fontSize=18;" vertex="1" parent="WIyWlLk6GJQsqaUBKTNV-1">
          <mxGeometry x="1500" y="-720" width="550" height="210" as="geometry" />
        </mxCell>
        <mxCell id="fCl1h1IX-KnyHzvw6Qa8-31" value="Установка неправильных ключей апи:&#xa;&#xa;&#xa;WB: {&#39;Status&#39;: &#39;Error&#39;, &#39;Message&#39;: &#39;New api key is wrong&#39;}&#xa;WB: {&#39;Status&#39;: &#39;Error&#39;, &#39;Message&#39;: &#39;Old api ket is wrong&#39;}&#xa;WB: {&#39;Status&#39;: &#39;Error&#39;, &#39;Message&#39;: &#39;Both keys is wrong&#39;}&#xa;Ozon: {&#39;Status&#39;: &#39;Error&#39;, &#39;Message&#39;: &#39;Api key or client id is wrong&#39;}&#xa;&#xa;&#xa;&#xa;&#xa;&#xa;&#xa;fetch(&#39;/api/account/account_settings/&#39;, {&#xa;                method: &#39;POST&#39;,&#xa;                headers: {&#xa;                    &#39;Content-Type&#39;: &#39;application/json;charset=utf-8&#39;, &#xa;                     &quot;X-CSRFToken&quot;: &#39;3FLvKhiwYyvmUQYtfoz89jN7Uqf3LWXMGMf50hxYjQxTLu8Du8ubCjc2gi5JllFa&#39;&#xa;                },&#xa;                data: {&quot;Type&quot;: &quot;Ozon&quot;, &quot;Id&quot;: &quot;1&quot;, &quot;new_api_key_wb&quot;: &quot;&quot;,&#xa;        &quot;old_api_key_wb&quot;: &quot;&quot;,&#xa;        &quot;api_key_ozon&quot;: &quot;3FLvKhiwYyvmUQYtfoz89jN7Uqf3LWXMGMf50hxYjQxTLu8Du8ubCjc2gi5JllFa&quot;,&#xa;        &quot;api_client_id_ozon&quot;: &quot;126334&quot;},&#xa;            });" style="text;whiteSpace=wrap;html=1;fontSize=18;" vertex="1" parent="WIyWlLk6GJQsqaUBKTNV-1">
          <mxGeometry x="2205" y="-750" width="550" height="590" as="geometry" />
        </mxCell>
        <mxCell id="fCl1h1IX-KnyHzvw6Qa8-33" style="edgeStyle=orthogonalEdgeStyle;rounded=0;orthogonalLoop=1;jettySize=auto;html=1;exitX=0;exitY=0.5;exitDx=0;exitDy=0;fontSize=18;" edge="1" parent="WIyWlLk6GJQsqaUBKTNV-1" source="fCl1h1IX-KnyHzvw6Qa8-32" target="fCl1h1IX-KnyHzvw6Qa8-31">
          <mxGeometry relative="1" as="geometry" />
        </mxCell>
        <UserObject label="settings&lt;br&gt;" lucidchartObjectId="d0ThvlTQT.xf" id="fCl1h1IX-KnyHzvw6Qa8-32">
          <mxCell style="html=1;overflow=block;blockSpacing=1;whiteSpace=wrap;;whiteSpace=wrap;fontSize=17;fontFamily=Liberation Mono;fontColor=#333333;fontStyle=1;spacing=9;strokeColor=#5e5e5e;strokeOpacity=100;rounded=1;absoluteArcSize=1;arcSize=9;strokeWidth=2.3;" vertex="1" parent="WIyWlLk6GJQsqaUBKTNV-1">
            <mxGeometry x="2420" y="-940" width="120" height="90" as="geometry" />
          </mxCell>
        </UserObject>
        <mxCell id="fCl1h1IX-KnyHzvw6Qa8-34" value="https://92.63.192.215/api/account/registration/ - enpoint регистрации пользователя, POST запрос, ожидает {&quot;login&quot;, &quot;password&quot;,  &quot;phone_number&quot;, &quot;email&quot;}, ничего не отдает кроме статуса и сообщения либо ошибки либо успеха&#xa;&#xa;&#xa;&#xa;&#xa;https://92.63.192.215/api/account/confirm_sms/ - endpoint для подтверждения пользователя, POST запрос,&#xa;ожидает {&#39;phone_number&#39;: phone_number, &#39;sms_code&#39;: sms_code}*&#xa;&#xa;&#xa;&#xa;&#xa;Возвращает {&quot;Status&quot;: &quot;Error&quot;, &quot;Message&quot;: {&quot;attempts_amount&quot;: acc.sms_attempt_amount, &quot;error_message&quot;: &quot;Amount of attempts ended/Code isn&#39;t correct&quot;}}&#xa;или&#xa;{&quot;Status&quot;: &quot;OK&quot;, &quot;Message&quot;: &quot;Correct code&quot;}&#xa;&#xa;&#xa;&#xa;&#xa;&#xa;&#xa;&#xa;&#xa;&#xa;&#xa;&#xa;&#xa;https://92.63.192.215/api/account/send_sms_code/ - endpoint для отправки смс кода на номер, POST запрос, ожидает {&#39;phone_number&#39;: phone_number}&#xa;&#xa;&#xa;{&quot;Status&quot;: &quot;Error&quot;, &quot;Message&quot;: &quot;Account with that number does&#39;t exist&quot;} - когда нет аккаунта с таким номером телефона&#xa;{&quot;Status&quot;: &quot;OK&quot;, &quot;Message&quot;: &quot;SMS code sent&quot;} - смска успешно отправлена&#xa;&#xa;&#xa;&#xa;&#xa;https://92.63.192.215/api/account/login_by_phone/ - endpoint для логина по телефону, POST запрос, ожидает {&#39;phone_number&#39;: phone_number, &#39;sms_code&#39;: sms_code}&#xa;&#xa;&#xa;&quot;Status&quot;: &quot;Error&quot;, &quot;Message&quot;: {&quot;attempts_amount&quot;: acc.sms_attempt_amount, &quot;error_message&quot;: &quot;Amount of attempts ended&quot;}} - когда количество попыток кончилось&#xa;{&quot;Status&quot;: &quot;Error&quot;, &quot;Message&quot;: {&quot;attempts_amount&quot;: acc.sms_attempt_amount, &quot;error_message&quot;: &quot;Code isn&#39;t correct&quot;}} - когда неправильно ввел смс код&#xa;{&quot;Status&quot;: &quot;OK&quot;, &quot;Message&quot;: &quot;Correct code&quot;} - код введен корректно" style="text;whiteSpace=wrap;html=1;fontSize=18;" vertex="1" parent="WIyWlLk6GJQsqaUBKTNV-1">
          <mxGeometry x="3130" y="-850" width="550" height="1310" as="geometry" />
        </mxCell>
        <mxCell id="fCl1h1IX-KnyHzvw6Qa8-36" style="edgeStyle=orthogonalEdgeStyle;rounded=0;orthogonalLoop=1;jettySize=auto;html=1;exitX=0.5;exitY=1;exitDx=0;exitDy=0;fontSize=18;" edge="1" parent="WIyWlLk6GJQsqaUBKTNV-1" source="fCl1h1IX-KnyHzvw6Qa8-35" target="fCl1h1IX-KnyHzvw6Qa8-34">
          <mxGeometry relative="1" as="geometry" />
        </mxCell>
        <mxCell id="fCl1h1IX-KnyHzvw6Qa8-35" value="DP" style="rounded=0;whiteSpace=wrap;html=1;fontSize=18;align=left;" vertex="1" parent="WIyWlLk6GJQsqaUBKTNV-1">
          <mxGeometry x="3290" y="-1020" width="120" height="60" as="geometry" />
        </mxCell>
        <mxCell id="fCl1h1IX-KnyHzvw6Qa8-37" value="https://92.63.192.215/api/account/change_password/ - endpoint для смены пароля, POST запрос, ожидает &#39;phone_number&#39; - номер телефона, &#39;sms_code&#39;: смс код, &#39;new_password&#39;: новый пароль&#xa;Варианты возможных ответов:&#xa;{&#39;Status&#39;: &#39;OK&#39;, &#39;Message&#39;: &#39;Password has been changed successfully&#39;}&#xa;{&#39;Status&#39;: &#39;Error&#39;, &#39;Message&#39;: &#39;Something goes wrong&#39;}" style="text;whiteSpace=wrap;html=1;fontSize=18;" vertex="1" parent="WIyWlLk6GJQsqaUBKTNV-1">
          <mxGeometry x="110" y="250" width="550" height="190" as="geometry" />
        </mxCell>
        <mxCell id="fCl1h1IX-KnyHzvw6Qa8-38" value="Еще один возможный ответ:&#xa;{&quot;Status&quot;: &quot;Error&quot;, &quot;Message&quot;: &quot;Search word has to be longer than 2 symbols&quot;}" style="text;whiteSpace=wrap;html=1;fontSize=18;" vertex="1" parent="WIyWlLk6GJQsqaUBKTNV-1">
          <mxGeometry x="1270" y="370" width="550" height="80" as="geometry" />
        </mxCell>
        <mxCell id="fCl1h1IX-KnyHzvw6Qa8-39" value="https://92.63.192.215/api/app/products_seacrh/ - endpoint для поиска товара по артикулю или названию, POST запрос, ожидает &#39;mp_type&#39; - &#39;Ozon/WB&#39;, &#39;mp_id&#39;: id маркетплейса, &#39;search_word&#39;: слово для поиска&#xa;Выдает ту же структуру как и эндпоинт страницы продуктов" style="text;whiteSpace=wrap;html=1;fontSize=18;" vertex="1" parent="WIyWlLk6GJQsqaUBKTNV-1">
          <mxGeometry x="980" y="680" width="550" height="130" as="geometry" />
        </mxCell>
      </root>
    </mxGraphModel>
  </diagram>
</mxfile>
